<svg xmlns="http://www.w3.org/2000/svg" width="90" height="32" viewBox="0 0 90 32" fill="none">
  <path d="M43.275 15.321q-1.575 0-2.844-.551a5.4 5.4 0 0 1-2.077-1.594q-.807-1.044-1.023-2.48l2.795-.414q.296 1.22 1.22 1.88.926.66 2.107.66.66 0 1.279-.207a2.5 2.5 0 0 0 1.014-.61q.403-.404.403-.995 0-.216-.069-.413a1.05 1.05 0 0 0-.206-.384 1.5 1.5 0 0 0-.424-.334 3.2 3.2 0 0 0-.679-.286l-3.68-1.082q-.414-.119-.965-.335a4.3 4.3 0 0 1-1.053-.62 3.2 3.2 0 0 1-.856-1.063q-.335-.669-.335-1.683 0-1.427.718-2.372.72-.945 1.92-1.407t2.657-.453q1.466.02 2.618.502 1.15.482 1.929 1.407.777.915 1.122 2.244l-2.894.492a2.56 2.56 0 0 0-.58-1.161 2.8 2.8 0 0 0-1.014-.719 3.4 3.4 0 0 0-1.22-.265 3.3 3.3 0 0 0-1.191.177q-.552.187-.906.551-.345.365-.344.866 0 .463.285.758.285.285.719.463.433.177.885.295l2.46.67q.552.146 1.221.393.67.236 1.28.669.62.423 1.014 1.122.403.699.403 1.771 0 1.143-.482 1.998a4.2 4.2 0 0 1-1.28 1.408 6 6 0 0 1-1.83.827 8 8 0 0 1-2.097.275m13.442-.295q-1.101.207-2.165.177-1.053-.02-1.89-.364a2.55 2.55 0 0 1-1.26-1.132 3.26 3.26 0 0 1-.413-1.476 67 67 0 0 1-.02-1.713V1.444h2.678v8.917q0 .62.01 1.122.02.492.206.787.354.561 1.132.61a9 9 0 0 0 1.722-.078zM49.16 6.463V4.397h7.558v2.066zm12.092 8.858q-1.14 0-1.938-.433a3.1 3.1 0 0 1-1.201-1.171 3.33 3.33 0 0 1-.404-1.624q0-.738.227-1.348.225-.61.728-1.073.511-.473 1.368-.787a10 10 0 0 1 1.407-.384 32 32 0 0 1 1.85-.315l2.274-.345-.964.532q0-.945-.453-1.388t-1.516-.443q-.59 0-1.23.286-.64.285-.896 1.013l-2.42-.767a4.1 4.1 0 0 1 1.515-2.146q1.112-.827 3.031-.827 1.408 0 2.5.433a3.12 3.12 0 0 1 1.653 1.496q.315.591.374 1.181.06.591.06 1.32v6.495h-2.343V12.84l.335.453q-.779 1.072-1.683 1.555-.895.472-2.274.472m.571-2.106q.738 0 1.24-.256.511-.265.807-.6.305-.335.414-.561.206-.434.236-1.004.04-.58.04-.965l.787.197q-1.19.197-1.93.335-.737.128-1.19.236a7 7 0 0 0-.797.236q-.394.158-.64.345a1.2 1.2 0 0 0-.355.393 1.1 1.1 0 0 0-.108.483q0 .363.177.63.188.255.522.393.335.138.797.138m11.85 2.106q-1.653 0-2.834-.738a4.87 4.87 0 0 1-1.811-2.008q-.63-1.269-.63-2.864 0-1.614.65-2.883a5 5 0 0 1 1.85-1.998q1.19-.729 2.814-.729 1.88 0 3.15.955 1.28.945 1.633 2.588l-2.677.709q-.235-.826-.826-1.29a2.06 2.06 0 0 0-1.319-.462q-.846 0-1.388.414-.54.404-.797 1.112-.255.699-.256 1.584 0 1.388.61 2.254.62.856 1.831.856.906 0 1.378-.413.472-.414.709-1.181l2.736.57q-.453 1.695-1.713 2.609-1.26.915-3.11.915m5.984-.295.02-14.173h2.716v8.661l3.602-5.117h3.307L85.463 9.71l4.094 5.315h-3.484l-3.68-5.118v5.118zM36.81 30.926l4.33-14.173h3.996l4.33 14.173H46.71l-3.858-12.5h.512l-3.8 12.5zm2.597-2.953v-2.5h7.48v2.5zM54.4 31.241q-1.25 0-2.037-.424-.788-.423-1.23-1.073a4.5 4.5 0 0 1-.62-1.348 7 7 0 0 1-.227-1.29 14 14 0 0 1-.04-.846v-5.964h2.717v5.02q0 .363.04.935.04.56.245 1.131.207.572.67.955.473.384 1.328.384.345 0 .739-.108a1.85 1.85 0 0 0 .738-.414q.344-.315.56-.915.227-.61.227-1.594l1.535.728q0 1.26-.511 2.362a4.2 4.2 0 0 1-1.546 1.781q-1.023.68-2.588.68m3.445-.316v-3.523h-.335v-7.106h2.697v10.63zm10.703 0q-1.102.207-2.166.178-1.053-.02-1.89-.365a2.55 2.55 0 0 1-1.259-1.131 3.26 3.26 0 0 1-.413-1.477 66 66 0 0 1-.02-1.712v-9.074h2.677v8.917q0 .62.01 1.121.02.492.206.788.355.56 1.132.61a9 9 0 0 0 1.723-.079zm-7.559-8.562v-2.067h7.559v2.067zm16.384 8.563v-5.02q0-.364-.04-.925a4.2 4.2 0 0 0-.246-1.142 2.15 2.15 0 0 0-.679-.954q-.462-.384-1.319-.384-.344 0-.738.108a1.8 1.8 0 0 0-.738.423q-.345.306-.57.906-.217.6-.217 1.594l-1.536-.728q0-1.26.512-2.362a4.25 4.25 0 0 1 1.535-1.782q1.034-.678 2.599-.679 1.25 0 2.037.423.788.424 1.22 1.073.444.65.63 1.358.187.7.227 1.28.039.581.039.846v5.965zm-7.264 0V16.752h2.382v7.283h.335v6.89zM25.246 5.936 14.163.448a2.04 2.04 0 0 0-1.808-.002L0 6.544v11.432l13.259 6.587 10.582-5.354v3.824l-10.582 5.312L0 21.843v2.668c0 .552.314 1.056.81 1.298l11.75 5.745a2.04 2.04 0 0 0 1.817-.013l12.098-6.128v-9.055a1.36 1.36 0 0 0-1.95-1.225l-8.461 4.076v-3.613l10.411-5.27v-2.41a2.21 2.21 0 0 0-1.229-1.98" fill="currentColor"/>
</svg>
